<svg width="100%" height="100%" viewBox="0 0 47 40" fill="none" xmlns="http://www.w3.org/2000/svg">
<path d="M30.5527 24.4688V33H29.416L25.1211 26.4199V33H23.9902V24.4688H25.1211L29.4336 31.0664V24.4688H30.5527ZM35.0234 33.1172C34.582 33.1172 34.1816 33.043 33.8223 32.8945C33.4668 32.7422 33.1602 32.5293 32.9023 32.2559C32.6484 31.9824 32.4531 31.6582 32.3164 31.2832C32.1797 30.9082 32.1113 30.498 32.1113 30.0527V29.8066C32.1113 29.291 32.1875 28.832 32.3398 28.4297C32.4922 28.0234 32.6992 27.6797 32.9609 27.3984C33.2227 27.1172 33.5195 26.9043 33.8516 26.7598C34.1836 26.6152 34.5273 26.543 34.8828 26.543C35.3359 26.543 35.7266 26.6211 36.0547 26.7773C36.3867 26.9336 36.6582 27.1523 36.8691 27.4336C37.0801 27.7109 37.2363 28.0391 37.3379 28.418C37.4395 28.793 37.4902 29.2031 37.4902 29.6484V30.1348H32.7559V29.25H36.4062V29.168C36.3906 28.8867 36.332 28.6133 36.2305 28.3477C36.1328 28.082 35.9766 27.8633 35.7617 27.6914C35.5469 27.5195 35.2539 27.4336 34.8828 27.4336C34.6367 27.4336 34.4102 27.4863 34.2031 27.5918C33.9961 27.6934 33.8184 27.8457 33.6699 28.0488C33.5215 28.252 33.4062 28.5 33.3242 28.793C33.2422 29.0859 33.2012 29.4238 33.2012 29.8066V30.0527C33.2012 30.3535 33.2422 30.6367 33.3242 30.9023C33.4102 31.1641 33.5332 31.3945 33.6934 31.5938C33.8574 31.793 34.0547 31.9492 34.2852 32.0625C34.5195 32.1758 34.7852 32.2324 35.082 32.2324C35.4648 32.2324 35.7891 32.1543 36.0547 31.998C36.3203 31.8418 36.5527 31.6328 36.752 31.3711L37.4082 31.8926C37.2715 32.0996 37.0977 32.2969 36.8867 32.4844C36.6758 32.6719 36.416 32.8242 36.1074 32.9414C35.8027 33.0586 35.4414 33.1172 35.0234 33.1172ZM40.3613 31.875L41.9902 26.6602H42.7051L42.5645 27.6973L40.9062 33H40.209L40.3613 31.875ZM39.2656 26.6602L40.6543 31.9336L40.7539 33H40.0215L38.1816 26.6602H39.2656ZM44.2637 31.8926L45.5879 26.6602H46.666L44.8262 33H44.0996L44.2637 31.8926ZM42.8633 26.6602L44.457 31.7871L44.6387 33H43.9473L42.2422 27.6855L42.1016 26.6602H42.8633Z" fill="#739AFF"/>
<path d="M8.76465 20.4521H6.22852V18.8525H8.76465C9.15658 18.8525 9.47559 18.7887 9.72168 18.6611C9.96777 18.529 10.1478 18.3467 10.2617 18.1143C10.3757 17.8818 10.4326 17.6198 10.4326 17.3281C10.4326 17.0319 10.3757 16.7562 10.2617 16.501C10.1478 16.2458 9.96777 16.0407 9.72168 15.8857C9.47559 15.7308 9.15658 15.6533 8.76465 15.6533H6.93945V24H4.88867V14.0469H8.76465C9.54395 14.0469 10.2116 14.1882 10.7676 14.4707C11.3281 14.7487 11.7565 15.1338 12.0527 15.626C12.349 16.1182 12.4971 16.681 12.4971 17.3145C12.4971 17.957 12.349 18.513 12.0527 18.9824C11.7565 19.4518 11.3281 19.8141 10.7676 20.0693C10.2116 20.3245 9.54395 20.4521 8.76465 20.4521ZM16.7627 19.8984L12.9688 14.0469H15.5186L17.7471 18.0801H19.4766L19.21 19.8984H16.7627ZM17.7334 19.584L15.375 24H12.8184L16.0791 18.3945L17.7334 19.584ZM20.8164 14.0469V24H18.7793V14.0469H20.8164ZM26.5449 14.0469L22.8057 19.8984H20.3721L20.1055 18.0801H21.8213L23.9951 14.0469H26.5449ZM24.1387 24L21.835 19.584L23.4961 18.3945L26.6953 24H24.1387ZM35.6162 22.4004V24H28.4453V22.4004H35.6162ZM29.0537 22.4004V26.4404H27.126L27.0166 22.4004H29.0537ZM37.0928 22.4004L36.915 26.4473H35.0352V22.4004H37.0928ZM34.4883 14.0469V15.6533H29.6963V14.0469H34.4883ZM35.9512 14.0469V24H33.9072V14.0469H35.9512ZM29.4434 14.0469H31.4941L31.2275 18.1006C31.1865 18.7705 31.1136 19.363 31.0088 19.8779C30.9085 20.3883 30.7855 20.8372 30.6396 21.2246C30.4984 21.612 30.3411 21.9515 30.168 22.2432C29.9948 22.5303 29.8125 22.7809 29.6211 22.9951C29.4297 23.2048 29.236 23.3916 29.04 23.5557C28.8441 23.7152 28.6527 23.8633 28.4658 24H27.29V22.4004H27.748C27.8802 22.291 28.0192 22.1406 28.165 21.9492C28.3154 21.7578 28.4567 21.5003 28.5889 21.1768C28.7256 20.8486 28.8441 20.4339 28.9443 19.9326C29.0492 19.4313 29.1266 18.8206 29.1768 18.1006L29.4434 14.0469Z" fill="#FA5D5D"/>
</svg>
